<?xml version="1.0" standalone="no"?>
<!DOCTYPE svg PUBLIC "-//W3C//DTD SVG 20010904//EN"
 "http://www.w3.org/TR/2001/REC-SVG-20010904/DTD/svg10.dtd">
<svg version="1.0" xmlns="http://www.w3.org/2000/svg"
 width="500.000000pt" height="500.000000pt" viewBox="0 0 500.000000 500.000000"
 preserveAspectRatio="xMidYMid meet">
<metadata>
Created by potrace 1.14, written by Peter Selinger 2001-2017
</metadata>
<g transform="translate(0.000000,500.000000) scale(0.100000,-0.100000)"
fill="#000000" stroke="none">
<path d="M1077 3330 c-73 -23 -149 -65 -195 -107 -7 -7 -22 -13 -32 -13 -18 0
-60 -43 -60 -61 0 -5 -25 -39 -55 -76 -98 -123 -201 -353 -211 -476 -2 -29 -7
-72 -10 -97 -9 -66 -4 -190 7 -190 4 0 7 -10 7 -22 0 -39 40 -182 72 -256 16
-39 30 -77 30 -85 0 -21 160 -181 221 -219 112 -72 258 -100 330 -63 70 37
111 108 109 190 -1 28 -2 361 -3 740 -2 585 -5 693 -17 712 -25 38 -111 48
-193 23z m167 -21 c22 -18 26 -28 26 -74 0 -45 -3 -53 -16 -48 -9 3 -14 13
-11 24 3 11 -2 19 -14 22 -11 3 -19 14 -19 25 0 15 -5 18 -25 14 -18 -3 -25 0
-25 12 0 9 -4 16 -10 16 -5 0 -10 -4 -10 -10 0 -5 -7 -10 -15 -10 -8 0 -15 5
-15 10 0 6 -7 10 -15 10 -8 0 -14 -6 -12 -12 1 -8 -7 -12 -19 -11 -15 2 -24
-4 -27 -19 -4 -14 -11 -19 -22 -14 -13 4 -15 1 -10 -13 4 -14 -1 -23 -16 -32
-20 -10 -21 -12 -5 -21 13 -8 15 -13 5 -24 -16 -20 -29 -17 -29 6 0 12 -13 28
-31 39 l-32 19 54 35 c118 74 240 98 293 56z m-59 -67 c19 -14 19 -14 -5 -7
-14 3 -35 9 -47 12 -13 3 -23 9 -23 14 0 12 50 0 75 -19z m-95 9 c0 -5 -9 -12
-19 -16 -11 -3 -23 -15 -26 -26 -7 -20 -25 -27 -25 -9 0 13 49 60 61 60 5 0 9
-4 9 -9z m85 -46 c12 -14 22 -34 20 -43 -2 -9 -4 -23 -4 -29 -2 -24 -41 -53
-70 -53 -67 0 -102 80 -56 126 33 32 79 32 110 -1z m49 -11 c9 -24 7 -54 -4
-54 -5 0 -10 9 -10 19 0 11 -3 26 -6 35 -3 9 -2 16 4 16 5 0 13 -7 16 -16z
m-359 -2 c-6 -4 -12 -21 -13 -39 -3 -24 2 -35 20 -47 30 -20 66 -17 74 6 6 19
21 23 43 9 8 -5 11 -16 6 -30 -5 -18 -3 -22 12 -19 12 2 19 -4 21 -19 2 -15 8
-20 18 -16 8 3 21 -3 29 -13 12 -16 16 -17 24 -5 8 12 12 12 25 2 13 -11 18
-10 32 3 21 21 39 7 48 -35 5 -29 9 -31 36 -25 30 5 30 5 30 -39 0 -24 -5 -47
-12 -51 -7 -5 -8 -3 -4 5 5 8 0 14 -13 18 -16 4 -20 10 -15 26 5 16 3 19 -14
15 -15 -4 -18 -1 -15 12 3 10 0 21 -6 24 -6 4 -11 2 -11 -3 0 -20 -18 -11 -24
11 -5 22 -6 22 -20 3 -14 -18 -15 -18 -16 -2 0 19 -30 24 -31 5 0 -10 -2 -10
-6 0 -6 15 -33 16 -33 1 0 -5 -5 -7 -11 -4 -6 4 -16 -1 -23 -11 -10 -13 -15
-14 -21 -4 -4 7 -2 16 6 21 8 5 9 9 3 9 -6 0 -10 10 -9 23 2 12 -4 28 -11 35
-8 7 -14 11 -15 10 -6 -18 -4 -86 3 -82 15 9 8 -3 -9 -17 -14 -12 -16 -12 -9
0 6 9 5 12 -5 9 -21 -8 -49 10 -49 32 0 21 27 40 47 33 6 -2 10 4 9 14 -2 13
-11 17 -30 16 -28 -2 -60 -26 -49 -37 4 -3 2 -6 -3 -6 -5 0 -10 -9 -10 -20 0
-11 5 -20 10 -20 5 0 6 -3 3 -6 -4 -4 3 -15 14 -25 15 -13 31 -17 54 -13 18 3
36 0 40 -6 4 -6 -5 -10 -21 -10 -22 0 -25 -3 -16 -12 17 -17 15 -28 -5 -21
-13 5 -15 2 -11 -15 4 -12 2 -25 -3 -28 -6 -3 -7 -14 -4 -25 4 -12 2 -19 -7
-19 -9 -1 -7 -5 5 -14 10 -8 15 -20 11 -30 -4 -11 -1 -16 10 -16 18 0 20 -8 6
-30 -7 -10 -13 -11 -17 -5 -10 14 -51 17 -58 5 -3 -5 -13 -6 -22 -3 -11 4 -14
3 -9 -5 4 -7 1 -12 -9 -12 -11 0 -15 -5 -11 -15 3 -8 1 -15 -5 -15 -6 0 -8 -7
-5 -17 4 -9 1 -20 -6 -25 -10 -6 -10 -8 0 -8 6 0 12 -9 12 -20 0 -11 5 -20 10
-20 6 0 10 -7 10 -15 0 -8 5 -14 12 -13 6 2 13 -6 15 -17 2 -11 1 -16 -4 -10
-13 16 -41 11 -56 -9 -10 -13 -16 -16 -21 -7 -10 16 -26 4 -19 -14 3 -8 0 -16
-6 -16 -6 -1 -17 -2 -23 -3 -7 -1 -12 -11 -10 -24 2 -15 -2 -22 -12 -22 -9 0
-16 -4 -16 -10 0 -5 5 -10 11 -10 6 0 9 -7 7 -17 -4 -21 -37 -26 -45 -7 -3 8
-12 13 -19 10 -8 -3 -14 -1 -14 4 0 5 -10 9 -22 7 -16 -1 -22 3 -19 13 8 37 8
46 -7 63 -8 9 -25 17 -37 17 -21 0 -24 8 -16 53 0 4 8 7 17 7 10 0 14 -6 10
-15 -3 -9 0 -15 9 -15 8 0 15 -7 15 -17 0 -9 3 -13 7 -10 3 4 12 2 20 -4 7 -6
13 -8 13 -4 0 4 7 2 15 -5 12 -10 15 -10 15 1 0 12 2 12 9 0 6 -9 11 -10 15
-2 4 6 12 9 17 6 5 -4 12 0 15 9 3 9 12 12 22 9 11 -5 14 -2 9 10 -4 10 -2 16
6 14 7 -1 11 4 9 11 -1 6 3 12 9 12 6 0 9 6 6 14 -3 8 -1 17 6 20 9 3 8 7 -2
14 -11 8 -11 11 0 16 10 4 11 7 2 12 -7 3 -9 12 -6 20 3 8 0 14 -6 14 -6 0
-10 6 -9 13 2 6 -3 11 -9 9 -7 -1 -13 4 -13 12 0 8 -7 16 -15 20 -8 3 -15 13
-15 22 0 10 3 15 6 11 8 -7 34 17 34 32 0 6 4 11 9 11 12 0 6 43 -10 68 -8 12
-19 22 -26 22 -7 0 -13 4 -13 8 0 4 -9 8 -20 8 -11 0 -20 -4 -20 -8 0 -4 -5
-8 -11 -8 -13 0 -3 48 13 68 9 10 14 7 24 -17 12 -29 22 -34 67 -34 14 0 17
-6 13 -28 -2 -17 0 -29 7 -29 5 0 8 -3 4 -6 -7 -7 12 -28 33 -37 9 -3 4 -6
-11 -6 -15 -1 -30 -8 -33 -17 -10 -25 -7 -66 4 -59 6 3 10 1 10 -4 0 -15 31
-13 51 2 16 12 18 37 4 72 -5 11 -5 17 0 13 4 -4 21 6 37 22 23 25 27 34 18
50 -6 11 -8 20 -5 20 21 0 -31 32 -55 34 -27 2 -56 16 -33 16 16 0 10 32 -9
54 -21 23 -15 36 12 29 23 -6 50 18 50 46 0 23 -27 54 -41 46 -5 -4 -9 5 -9
19 0 24 32 56 55 56 7 0 7 -3 0 -8z m73 -36 c4 -17 -14 -46 -27 -46 -3 0 -14
7 -24 14 -14 11 -15 19 -8 40 9 21 14 24 33 17 13 -4 24 -16 26 -25z m92 -25
c4 -17 5 -33 0 -36 -8 -5 -20 28 -20 59 0 26 9 16 20 -23z m231 6 c-8 -8 -11
-7 -11 4 0 20 13 34 18 19 3 -7 -1 -17 -7 -23z m-41 -26 c0 -15 -49 -61 -65
-61 -12 0 -8 9 17 34 34 34 48 42 48 27z m39 -18 c-11 -13 -11 -15 -1 -9 11 7
12 4 3 -13 -8 -15 -9 -21 -1 -21 6 0 9 -4 5 -10 -3 -5 -12 -7 -20 -3 -9 3 -22
-1 -31 -8 -14 -11 -15 -10 -12 11 2 18 8 24 21 22 15 -3 17 1 12 17 -4 13 0
23 12 30 24 13 29 6 12 -16z m-424 -4 c5 -14 2 -25 -6 -30 -19 -12 -25 -11
-39 6 -10 12 -10 18 0 30 18 21 38 19 45 -6z m260 -24 c39 -14 39 -19 0 -15
-20 2 -67 30 -50 30 6 0 28 -7 50 -15z m-323 -5 c4 -29 1 -34 -24 -35 -27 -2
-28 4 -5 33 11 15 26 16 29 2z m478 -60 c0 -11 -7 -20 -15 -20 -8 0 -15 9 -15
20 0 11 7 20 15 20 8 0 15 -9 15 -20z m-486 -6 c21 -8 21 -50 0 -58 -9 -4 -23
-1 -30 5 -17 14 -18 46 -1 52 6 3 13 6 14 6 1 1 8 -2 17 -5z m101 -124 c0 -20
-5 -25 -25 -25 -20 0 -26 6 -28 28 -3 26 -1 28 25 25 22 -2 28 -8 28 -28z
m274 13 c50 -42 19 -132 -46 -133 -25 0 -71 37 -74 60 -3 33 2 50 23 70 27 25
69 26 97 3z m-425 -29 c9 -8 16 -22 16 -29 0 -18 -27 -45 -45 -45 -22 0 -45
29 -38 48 16 44 40 53 67 26z m-74 -97 c0 -5 4 -6 9 -3 5 3 11 0 14 -8 4 -9
-3 -13 -21 -13 -14 0 -28 -6 -30 -12 -2 -6 -10 -11 -17 -11 -7 0 -15 -6 -18
-12 -2 -7 -7 -10 -11 -7 -4 4 0 24 8 45 8 22 17 48 21 59 6 19 7 19 25 -5 11
-14 20 -29 20 -33z m190 4 c0 -11 -5 -23 -11 -27 -15 -9 -33 12 -26 30 9 23
37 20 37 -3z m420 -16 c0 -12 -19 -12 -23 0 -4 9 -1 12 9 8 7 -3 14 -7 14 -8z
m-29 -63 c-5 -16 -14 -26 -24 -26 -10 1 -17 -2 -17 -7 0 -5 -5 -8 -12 -6 -6 1
-18 -10 -25 -25 -10 -21 -22 -28 -42 -28 -16 0 -34 -6 -40 -14 -8 -10 -23 -13
-45 -9 -20 3 -36 1 -40 -6 -11 -16 -26 -13 -20 4 4 8 11 12 17 8 6 -4 8 0 4
10 -9 23 13 34 28 14 16 -22 42 -21 54 1 17 31 -36 61 -54 32 -4 -6 -11 -8
-16 -4 -6 4 -6 11 2 20 8 10 8 14 0 14 -19 0 -12 17 9 23 13 3 20 0 20 -9 0
-17 12 -18 28 -2 9 9 12 8 12 -5 0 -20 11 -22 28 -5 9 9 12 9 12 0 0 -19 30
-14 31 6 0 10 3 12 6 5 7 -19 20 -16 26 6 3 14 11 18 25 14 18 -4 20 -1 15 19
-6 20 -4 21 9 10 12 -9 14 -20 9 -40z m-246 18 c3 -5 1 -10 -4 -10 -6 0 -11 5
-11 10 0 6 2 10 4 10 3 0 8 -4 11 -10z m-105 -4 c0 -2 -8 -10 -17 -17 -16 -13
-17 -12 -4 4 13 16 21 21 21 13z m65 -26 c12 -13 15 -27 11 -45 -8 -30 -26
-40 -60 -31 -43 11 -45 69 -3 86 31 12 32 12 52 -10z m-241 -15 c38 -38 21
-95 -29 -95 -54 0 -72 80 -22 100 31 12 34 12 51 -5z m273 -17 c-3 -8 -6 -5
-6 6 -1 11 2 17 5 13 3 -3 4 -12 1 -19z m81 -26 c2 -7 -3 -12 -12 -12 -9 0
-16 7 -16 16 0 17 22 14 28 -4z m176 2 c21 -8 20 -51 -1 -63 -24 -13 -53 4
-53 33 0 35 17 44 54 30z m-273 -27 c-10 -9 -11 -8 -5 6 3 10 9 15 12 12 3 -3
0 -11 -7 -18z m186 -29 c1 -11 8 -25 15 -29 10 -6 10 -9 1 -9 -7 0 -10 -7 -7
-15 7 -18 -11 -20 -22 -3 -5 8 -11 6 -19 -6 -7 -9 -19 -15 -26 -14 -8 2 -13
-2 -12 -9 2 -7 -6 -17 -17 -23 -11 -6 -18 -15 -14 -21 3 -5 1 -16 -6 -24 -8
-9 -8 -15 0 -20 8 -5 8 -11 -1 -21 -9 -11 -8 -15 5 -20 11 -4 15 -13 11 -25
-5 -15 -1 -19 16 -19 22 0 22 -1 4 -14 -17 -12 -21 -12 -31 3 -12 15 -13 14
-20 -3 -6 -17 -8 -17 -16 -2 -7 12 -13 14 -21 7 -9 -7 -13 -1 -14 20 -2 20 2
29 12 29 18 0 19 12 3 28 -8 8 -8 15 2 27 11 13 10 18 -6 30 -16 12 -17 16 -4
24 12 8 9 12 -13 20 -18 7 -25 15 -21 26 5 13 2 15 -20 9 -20 -5 -26 -2 -26
10 0 9 0 19 0 24 0 4 6 7 13 7 6 0 15 4 19 9 9 14 38 -12 32 -29 -9 -22 13
-52 41 -57 14 -3 25 -1 25 4 0 5 4 7 9 3 11 -6 26 32 22 60 -1 14 1 16 7 7 12
-18 74 -12 67 6 -4 12 1 32 8 32 2 0 3 -10 4 -22z m-46 -11 c-10 -9 -11 -8 -5
6 3 10 9 15 12 12 3 -3 0 -11 -7 -18z m-61 -32 c0 -15 -27 -28 -41 -19 -13 8
-11 42 4 47 15 5 37 -11 37 -28z m-446 -44 c10 -16 -5 -41 -25 -41 -14 0 -19
7 -19 25 0 18 5 25 19 25 11 0 22 -4 25 -9z m323 -37 c22 -34 19 -71 -7 -100
-31 -32 -73 -32 -107 2 -21 21 -24 32 -20 62 11 67 98 90 134 36z m43 -17 c0
-5 -4 -5 -10 -2 -5 3 -10 14 -10 23 0 15 2 15 10 2 5 -8 10 -19 10 -23z m220
21 c0 -5 4 -7 8 -4 17 10 36 -43 26 -72 -14 -39 -50 -55 -86 -36 -15 8 -28 20
-29 27 0 6 -2 22 -5 35 -2 12 1 22 7 22 5 0 8 4 5 9 -4 5 6 13 21 18 35 12 53
12 53 1z m-600 -23 c6 3 10 -1 10 -10 0 -11 -5 -15 -15 -11 -10 4 -15 -1 -15
-15 0 -25 -18 -16 -30 15 -10 28 -3 38 21 26 11 -6 24 -8 29 -5z m192 -89 c-7
-13 -21 23 -21 54 1 22 2 20 13 -10 8 -19 11 -39 8 -44z m-115 26 c21 -13 26
-58 8 -76 -46 -46 -119 16 -76 66 16 19 47 23 68 10z m81 -11 c3 -10 0 -10
-17 -2 -25 14 -27 20 -4 17 9 -2 19 -8 21 -15z m210 -13 c-8 -12 -20 -24 -27
-26 -9 -3 -7 5 4 22 10 14 22 26 27 26 6 0 4 -10 -4 -22z m-198 -23 c8 0 15
-9 15 -20 0 -14 7 -20 25 -20 15 0 24 -5 23 -12 -2 -7 -1 -13 2 -13 3 0 14 6
25 13 17 10 22 9 30 -3 9 -13 12 -13 21 3 5 9 15 17 21 17 7 0 6 -5 -2 -15 -7
-8 -9 -15 -4 -16 5 0 -2 -5 -15 -10 -18 -7 -21 -12 -12 -23 9 -11 7 -15 -11
-20 -19 -5 -21 -8 -8 -17 11 -8 12 -12 3 -16 -7 -2 -13 -11 -13 -19 0 -8 6
-14 13 -14 8 0 7 -4 -3 -10 -23 -15 -32 -12 -25 10 4 14 2 20 -8 20 -8 0 -17
9 -20 21 -3 12 -10 18 -17 14 -6 -4 -17 1 -24 11 -9 12 -15 14 -20 5 -6 -9
-11 -9 -21 -1 -9 8 -15 8 -20 0 -3 -5 -15 -10 -26 -10 -10 0 -19 -7 -19 -15 0
-8 -7 -15 -16 -15 -10 0 -14 -6 -11 -14 3 -8 -2 -16 -14 -19 -22 -6 -33 11
-43 65 -7 37 1 43 32 25 7 -5 12 -3 12 3 0 7 8 9 20 5 12 -4 20 -2 20 5 0 7 7
10 15 6 9 -3 15 0 15 8 0 8 7 17 16 20 8 3 13 10 9 15 -3 5 -1 12 4 16 6 3 8
13 5 23 -4 10 -2 13 3 7 4 -5 15 -10 23 -10z m57 -1 c-3 -3 -12 -4 -19 -1 -8
3 -5 6 6 6 11 1 17 -2 13 -5z m-31 -176 c7 -1 11 -20 10 -47 -1 -38 -5 -48
-28 -61 -25 -13 -31 -13 -55 0 -39 22 -45 81 -11 105 14 10 33 14 48 10 14 -3
30 -6 36 -7z m86 -73 c-4 -24 -5 -24 -17 -8 -15 20 -11 33 9 33 9 0 12 -9 8
-25z m-168 -92 c5 -13 9 -13 22 -2 13 10 17 10 26 -2 7 -11 11 -11 15 -1 2 6
13 12 23 12 10 0 22 -6 26 -12 4 -7 4 -10 0 -6 -12 10 -69 -13 -89 -36 l-17
-21 -25 28 c-14 15 -25 34 -25 40 0 18 37 18 44 0z m261 -6 c14 -43 13 -47 -8
-43 -11 1 -21 9 -23 17 -1 8 -5 21 -8 29 -5 11 0 16 13 17 12 1 22 -7 26 -20z
m-68 -4 c20 -18 2 -48 -29 -50 -32 -2 -42 23 -20 49 16 19 30 19 49 1z m201
-5 c7 -7 12 -17 12 -22 0 -6 -7 -3 -15 8 -8 10 -19 15 -26 10 -8 -4 -10 -3 -5
4 9 15 19 15 34 0z m-9 -72 c12 -9 13 -8 6 4 -6 11 -5 12 4 4 7 -6 15 -30 18
-52 7 -49 -21 -82 -67 -82 -44 0 -71 32 -68 79 2 22 8 39 13 38 6 -1 9 4 7 11
-1 8 2 11 7 8 5 -4 12 -2 15 3 7 11 44 3 65 -13z m-75 -182 c5 -13 9 -14 21
-4 12 10 18 10 30 0 12 -10 16 -9 21 3 5 14 10 14 44 2 21 -7 41 -11 44 -8 3
4 6 1 6 -5 0 -16 -56 -25 -106 -17 -58 8 -112 30 -93 38 23 9 27 8 33 -9z"/>
<path d="M635 2449 c-9 -27 7 -43 34 -34 14 4 21 15 21 31 0 19 -5 24 -24 24
-16 0 -27 -7 -31 -21z m43 -7 c2 -7 -3 -12 -12 -12 -9 0 -16 7 -16 16 0 17 22
14 28 -4z"/>
<path d="M1452 3339 c-28 -10 -46 -27 -55 -52 -3 -9 -7 -350 -7 -756 -1 -727
-1 -740 19 -780 12 -22 37 -52 58 -68 31 -24 48 -28 112 -31 87 -4 150 15 240
72 70 43 220 194 227 226 3 14 16 50 29 80 31 72 63 188 71 258 3 32 11 65 16
75 11 20 13 90 4 105 -3 5 -8 45 -12 88 -12 176 -115 405 -251 563 -10 12 -20
31 -23 44 -3 13 -22 31 -45 43 -22 11 -67 37 -99 58 -98 64 -224 97 -284 75z"/>
<path d="M2537 3013 c-9 -32 -23 -79 -31 -105 -14 -45 -14 -48 3 -48 12 0 21
10 25 25 5 21 12 25 41 25 29 0 36 -4 41 -25 4 -15 13 -25 25 -25 17 0 17 3 4
48 -38 125 -52 157 -72 160 -16 2 -22 -7 -36 -55z m41 -71 c-28 -5 -29 -1 -15
43 l12 39 11 -39 c10 -36 9 -40 -8 -43z"/>
<path d="M2700 3059 c0 -6 8 -13 19 -16 15 -4 18 -15 19 -79 1 -65 -1 -74 -17
-74 -10 0 -18 -7 -18 -15 0 -11 13 -15 54 -15 53 0 73 17 33 27 -18 5 -20 14
-20 79 0 67 2 74 20 74 13 0 18 5 14 15 -7 18 -104 22 -104 4z"/>
<path d="M3056 3054 c-18 -17 -21 -59 -6 -69 5 -3 3 -19 -7 -40 -15 -31 -15
-36 1 -59 9 -14 24 -27 34 -27 29 -2 57 3 68 12 6 5 15 4 21 -2 8 -8 13 -7 18
1 4 6 2 17 -3 22 -8 8 -8 17 0 31 13 24 -11 45 -25 21 -7 -12 -11 -12 -31 3
-23 18 -23 18 -3 35 22 20 26 66 6 79 -22 14 -56 10 -73 -7z m54 -28 c0 -7 -6
-19 -14 -25 -11 -9 -15 -8 -20 5 -3 9 -4 20 0 25 8 14 34 11 34 -5z m3 -106
c15 -18 15 -21 2 -26 -23 -9 -45 3 -45 26 0 26 21 26 43 0z"/>
<path d="M3403 2965 c-1 -93 1 -105 16 -105 15 0 17 10 16 59 0 33 3 57 7 55
5 -3 8 -13 8 -24 0 -30 28 -32 39 -2 11 30 13 20 13 -50 0 -29 4 -38 17 -38
15 0 17 12 18 105 0 101 -1 106 -21 103 -14 -2 -23 -14 -29 -40 -5 -21 -12
-38 -16 -38 -4 0 -12 17 -17 38 -6 26 -15 38 -30 40 -20 3 -21 -1 -21 -103z"/>
<path d="M3625 3058 c-2 -7 -17 -55 -34 -105 -27 -87 -28 -93 -10 -93 12 0 21
10 25 26 6 22 11 25 43 22 29 -2 37 -8 39 -25 2 -15 10 -23 24 -23 12 0 18 5
16 13 -3 6 -18 54 -33 105 -22 73 -32 92 -47 92 -10 0 -21 -6 -23 -12z m39
-90 c6 -25 3 -28 -17 -28 -23 0 -24 2 -14 40 11 41 19 38 31 -12z"/>
<path d="M3779 3051 c-18 -14 -23 -31 -26 -77 -5 -74 21 -115 76 -116 35 -1
71 28 71 58 0 21 -28 17 -35 -6 -4 -14 -15 -20 -35 -20 -22 0 -30 6 -38 30
-12 34 -8 86 9 107 17 20 52 12 64 -14 14 -32 32 -28 37 7 6 40 0 46 -54 48
-32 1 -53 -4 -69 -17z"/>
<path d="M3939 3043 c-1 -42 -1 -125 0 -155 1 -18 7 -28 16 -28 11 0 15 12 15
45 0 45 0 45 36 45 28 0 35 -4 33 -17 -4 -46 2 -73 16 -73 12 0 15 18 15 105
0 87 -3 105 -15 105 -8 0 -15 -6 -16 -12 0 -7 -2 -26 -2 -43 -2 -26 -6 -30
-34 -33 -33 -3 -33 -3 -33 42 0 34 -4 46 -15 46 -9 0 -15 -10 -16 -27z"/>
<path d="M4137 3063 c-13 -12 -7 -23 12 -23 17 0 19 -8 19 -75 0 -65 -2 -75
-17 -75 -10 0 -18 -7 -18 -15 0 -11 13 -15 52 -15 39 0 52 4 52 15 0 8 -9 15
-19 15 -16 0 -18 9 -18 74 0 66 2 74 21 79 34 9 11 27 -35 27 -23 0 -46 -3
-49 -7z"/>
<path d="M4299 3063 c-1 -5 -2 -52 -3 -105 -2 -87 0 -98 16 -98 14 0 18 11 20
68 l3 67 26 -65 c20 -48 32 -66 48 -68 20 -3 21 0 21 102 0 96 -2 106 -18 106
-16 0 -18 -8 -17 -64 0 -36 -2 -63 -6 -61 -3 3 -17 32 -29 65 -16 44 -27 60
-41 60 -11 0 -20 -3 -20 -7z"/>
<path d="M4479 3068 c-1 -2 -2 -49 -3 -105 l-2 -103 68 0 c54 0 68 3 68 15 0
11 -12 15 -50 15 -49 0 -50 1 -50 30 0 28 2 30 40 30 29 0 40 4 40 15 0 11
-11 15 -40 15 -38 0 -40 2 -40 30 0 29 1 30 50 30 38 0 50 4 50 15 0 12 -14
15 -65 15 -36 0 -66 -1 -66 -2z"/>
<path d="M2509 2550 c0 -33 -1 -76 -1 -95 0 -19 1 -39 1 -45 1 -6 30 -10 66
-10 51 0 65 3 65 15 0 11 -12 15 -50 15 l-50 0 0 90 c0 73 -3 90 -15 90 -12 0
-15 -14 -16 -60z"/>
<path d="M2688 2505 l-3 -105 68 0 c53 0 67 3 67 15 0 11 -12 15 -50 15 -49 0
-50 1 -50 30 0 28 2 30 40 30 29 0 40 4 40 15 0 14 -30 21 -67 16 -8 -1 -13
10 -13 29 0 30 2 31 38 30 56 -3 62 -1 62 15 0 12 -14 15 -64 15 l-65 0 -3
-105z"/>
<path d="M2885 2518 c-17 -51 -31 -99 -33 -105 -6 -24 29 -13 38 12 8 20 16
25 44 25 28 0 35 -4 40 -25 4 -15 13 -25 25 -25 17 0 16 8 -14 103 -25 80 -36
103 -52 105 -16 2 -24 -12 -48 -90z m63 -5 c10 -31 10 -33 -14 -33 -22 0 -24
3 -18 28 13 52 16 52 32 5z"/>
<path d="M3049 2609 c-1 -2 -2 -50 -3 -106 -1 -92 0 -103 16 -103 14 0 18 8
18 40 0 22 4 40 9 40 6 0 20 -18 32 -40 16 -29 29 -40 46 -40 23 0 23 0 -7 42
-29 40 -30 43 -11 50 22 8 41 37 37 59 -6 39 -24 52 -80 57 -31 2 -57 3 -57 1z
m96 -45 c14 -14 14 -19 3 -30 -7 -7 -25 -15 -40 -18 -26 -4 -28 -2 -28 30 0
29 3 34 24 34 14 0 32 -7 41 -16z"/>
<path d="M3224 2508 c1 -88 3 -103 18 -106 14 -3 16 5 14 58 -1 33 0 63 3 65
2 3 17 -23 31 -57 19 -44 33 -64 47 -66 19 -3 20 2 18 95 -2 118 -2 113 -19
113 -11 0 -14 -14 -13 -60 1 -33 -1 -60 -5 -60 -3 0 -17 27 -30 60 -18 47 -27
60 -44 60 -21 0 -22 -4 -20 -102z"/>
<path d="M3420 2595 c0 -8 7 -15 15 -15 12 0 15 -15 15 -75 0 -60 -3 -75 -15
-75 -8 0 -15 -7 -15 -15 0 -11 12 -15 50 -15 36 0 50 4 50 14 0 7 -8 16 -17
18 -15 4 -18 16 -17 69 2 82 1 79 19 79 8 0 15 7 15 15 0 11 -12 15 -50 15
-38 0 -50 -4 -50 -15z"/>
<path d="M3580 2506 c0 -84 3 -106 14 -106 19 0 23 15 20 83 -1 31 -1 57 1 57
2 0 16 -31 31 -70 22 -56 31 -70 48 -70 20 0 21 5 19 97 -1 121 0 113 -18 113
-11 0 -15 -16 -17 -67 l-3 -68 -25 65 c-20 50 -31 66 -48 68 -22 3 -22 1 -22
-102z"/>
<path d="M3780 2590 c-25 -25 -34 -61 -27 -112 7 -51 34 -79 76 -80 41 -1 70
27 78 75 l6 37 -42 0 c-44 0 -54 -21 -15 -30 18 -4 20 -9 13 -27 -6 -17 -16
-23 -38 -23 -27 0 -31 5 -41 40 -23 85 34 149 76 85 23 -35 34 -31 34 13 l0
39 -51 1 c-37 1 -55 -4 -69 -18z"/>
<path d="M2509 2153 c0 -5 0 -44 1 -88 2 -92 15 -115 66 -115 50 0 64 28 64
127 0 67 -3 83 -15 83 -12 0 -15 -15 -15 -78 0 -80 -9 -102 -41 -102 -23 0
-29 20 -29 106 0 59 -3 74 -15 74 -8 0 -15 -3 -16 -7z"/>
<path d="M2706 2068 c-16 -51 -31 -99 -34 -105 -2 -8 4 -13 16 -13 14 0 22 8
24 23 2 18 10 23 40 25 33 3 38 0 44 -22 4 -16 13 -26 25 -26 17 0 17 3 4 48
-37 123 -52 157 -71 160 -16 2 -24 -13 -48 -90z m52 -36 c-28 -5 -29 -1 -15
43 l12 39 11 -39 c10 -36 9 -40 -8 -43z"/>
<path d="M2867 2153 c-3 -7 -2 -157 2 -190 2 -20 131 -18 131 2 0 11 -12 15
-50 15 -49 0 -50 1 -50 29 0 27 3 30 37 33 52 4 56 28 4 28 -39 0 -41 2 -41
30 0 29 1 30 50 30 38 0 50 4 50 15 0 12 -14 15 -64 15 -36 0 -67 -3 -69 -7z"/>
</g>
</svg>
