<?xml version="1.0" encoding="UTF-8" standalone="no"?><svg xmlns="http://www.w3.org/2000/svg" xmlns:xlink= "http://www.w3.org/1999/xlink" width="600" height="390" aria-label="A chart." style="overflow: hidden;"><defs id="_ABSTRACT_RENDERER_ID_28"></defs><rect x="0" y="0" width="600" height="390" stroke="none" stroke-width="0" fill="#ffffff"></rect><g><text text-anchor="start" x="115" y="52.05" font-family="Arial" font-size="13" font-weight="bold" stroke="none" stroke-width="0" fill="#000000">‎</text><rect x="115" y="41" width="371" height="13" stroke="none" stroke-width="0" fill-opacity="0" fill="#ffffff"></rect></g><g><rect x="365" y="75" width="121" height="127" stroke="none" stroke-width="0" fill-opacity="0" fill="#ffffff"></rect><g column-id="Research Scholars"><rect x="365" y="75" width="121" height="30" stroke="none" stroke-width="0" fill-opacity="0" fill="#ffffff"></rect><g><text text-anchor="start" x="383" y="86.05" font-family="Arial" font-size="13" stroke="none" stroke-width="0" fill="#222222">Research</text><text text-anchor="start" x="383" y="103.05" font-family="Arial" font-size="13" stroke="none" stroke-width="0" fill="#222222">Scholars</text></g><circle cx="371.5" cy="81.5" r="6.5" stroke="none" stroke-width="0" fill="#3366cc"></circle></g><g column-id="Working Professionals"><rect x="365" y="113" width="121" height="30" stroke="none" stroke-width="0" fill-opacity="0" fill="#ffffff"></rect><g><text text-anchor="start" x="383" y="124.05" font-family="Arial" font-size="13" stroke="none" stroke-width="0" fill="#222222">Working</text><text text-anchor="start" x="383" y="141.05" font-family="Arial" font-size="13" stroke="none" stroke-width="0" fill="#222222">Professionals</text></g><circle cx="371.5" cy="119.5" r="6.5" stroke="none" stroke-width="0" fill="#dc3912"></circle></g><g column-id="University Students"><rect x="365" y="151" width="121" height="30" stroke="none" stroke-width="0" fill-opacity="0" fill="#ffffff"></rect><g><text text-anchor="start" x="383" y="162.05" font-family="Arial" font-size="13" stroke="none" stroke-width="0" fill="#222222">University</text><text text-anchor="start" x="383" y="179.05" font-family="Arial" font-size="13" stroke="none" stroke-width="0" fill="#222222">Students</text></g><circle cx="371.5" cy="157.5" r="6.5" stroke="none" stroke-width="0" fill="#ff9900"></circle></g><g column-id="Others"><rect x="365" y="189" width="121" height="13" stroke="none" stroke-width="0" fill-opacity="0" fill="#ffffff"></rect><g><text text-anchor="start" x="383" y="200.05" font-family="Arial" font-size="13" stroke="none" stroke-width="0" fill="#222222">Others</text></g><circle cx="371.5" cy="195.5" r="6.5" stroke="none" stroke-width="0" fill="#109618"></circle></g></g><g><path d="M230,196L230,82A114,114,0,0,1,321.3786362752799,127.83883193144284L230,196A0,0,0,0,0,230,196" stroke="#ffffff" stroke-width="1" fill="#3366cc"></path><text text-anchor="start" x="250.04848024568525" y="123.70450881026821" font-family="Arial" font-size="13" stroke="none" stroke-width="0" fill="#ffffff">14.8%</text></g><g><path d="M230,196L321.3786362752799,127.83883193144284A114,114,0,0,1,305.9253528875047,281.03729057835676L230,196A0,0,0,0,0,230,196" stroke="#ffffff" stroke-width="1" fill="#dc3912"></path><text text-anchor="start" x="292.9225819756284" y="208.7631781517052" font-family="Arial" font-size="13" stroke="none" stroke-width="0" fill="#ffffff">23.6%</text></g><g><path d="M230,196L120.9348261222933,229.17812301842292A114,114,0,0,1,230,82L230,196A0,0,0,0,0,230,196" stroke="#ffffff" stroke-width="1" fill="#109618"></path><text text-anchor="start" x="145.5373698701364" y="151.66891919124495" font-family="Arial" font-size="13" stroke="none" stroke-width="0" fill="#ffffff">29.7%</text></g><g><path d="M230,196L305.9253528875047,281.03729057835676A114,114,0,0,1,120.93482612229334,229.17812301842304L230,196A0,0,0,0,0,230,196" stroke="#ffffff" stroke-width="1" fill="#ff9900"></path><text text-anchor="start" x="187.62139260087625" y="285.72907959240723" font-family="Arial" font-size="13" stroke="none" stroke-width="0" fill="#ffffff">31.9%</text></g><g></g></svg>